<svg width="45" height="27" viewBox="0 0 45 27" fill="none" xmlns="http://www.w3.org/2000/svg">
<path d="M12.1875 22.625H8.4375C7.92 22.625 7.5 22.205 7.5 21.6875C7.5 21.17 7.92 20.75 8.4375 20.75H12.1875C12.705 20.75 13.125 21.17 13.125 21.6875C13.125 22.205 12.705 22.625 12.1875 22.625Z" fill="#E95670"/>
<path d="M42.6563 22.625H40.3125C39.795 22.625 39.3751 22.205 39.3751 21.6875C39.3751 21.17 39.795 20.75 40.3125 20.75H41.8782L43.1419 14.015C43.1251 10.5687 40.1813 7.625 36.5626 7.625H30.4069L27.4238 20.75H32.8126C33.3301 20.75 33.7501 21.17 33.7501 21.6875C33.7501 22.205 33.3301 22.625 32.8126 22.625H26.2501C25.9651 22.625 25.6951 22.4956 25.5169 22.2725C25.3388 22.0512 25.2713 21.7587 25.3351 21.4812L28.7438 6.48125C28.8413 6.05188 29.2201 5.75 29.6588 5.75H36.5626C41.2144 5.75 45 9.53562 45 14.1875L43.5769 21.86C43.4944 22.3044 43.1082 22.625 42.6563 22.625Z" fill="#E95670"/>
<path d="M36.5625 26.375C33.9787 26.375 31.875 24.2731 31.875 21.6875C31.875 19.1019 33.9787 17 36.5625 17C39.1462 17 41.25 19.1019 41.25 21.6875C41.25 24.2731 39.1462 26.375 36.5625 26.375ZM36.5625 18.875C35.0119 18.875 33.75 20.1369 33.75 21.6875C33.75 23.2381 35.0119 24.5 36.5625 24.5C38.1131 24.5 39.375 23.2381 39.375 21.6875C39.375 20.1369 38.1131 18.875 36.5625 18.875Z" fill="#E95670"/>
<path d="M15.9375 26.375C13.3538 26.375 11.25 24.2731 11.25 21.6875C11.25 19.1019 13.3538 17 15.9375 17C18.5213 17 20.625 19.1019 20.625 21.6875C20.625 24.2731 18.5213 26.375 15.9375 26.375ZM15.9375 18.875C14.3869 18.875 13.125 20.1369 13.125 21.6875C13.125 23.2381 14.3869 24.5 15.9375 24.5C17.4881 24.5 18.75 23.2381 18.75 21.6875C18.75 20.1369 17.4881 18.875 15.9375 18.875Z" fill="#E95670"/>
<path d="M12.1875 5.75H4.6875C4.17 5.75 3.75 5.33 3.75 4.8125C3.75 4.295 4.17 3.875 4.6875 3.875H12.1875C12.705 3.875 13.125 4.295 13.125 4.8125C13.125 5.33 12.705 5.75 12.1875 5.75Z" fill="#E95670"/>
<path d="M12.1875 11.375H2.8125C2.295 11.375 1.875 10.955 1.875 10.4375C1.875 9.92 2.295 9.5 2.8125 9.5H12.1875C12.705 9.5 13.125 9.92 13.125 10.4375C13.125 10.955 12.705 11.375 12.1875 11.375Z" fill="#E95670"/>
<path d="M12.1875 17H0.9375C0.42 17 0 16.58 0 16.0625C0 15.545 0.42 15.125 0.9375 15.125H12.1875C12.705 15.125 13.125 15.545 13.125 16.0625C13.125 16.58 12.705 17 12.1875 17Z" fill="#E95670"/>
<path d="M26.25 22.625H19.6875C19.17 22.625 18.75 22.205 18.75 21.6875C18.75 21.17 19.17 20.75 19.6875 20.75H25.5019L29.7619 2H8.4375C7.92 2 7.5 1.58 7.5 1.0625C7.5 0.545 7.92 0.125 8.4375 0.125H30.9375C31.2225 0.125 31.4925 0.254375 31.6706 0.4775C31.8488 0.69875 31.9163 0.99125 31.8525 1.26875L27.165 21.8938C27.0675 22.3231 26.6869 22.625 26.25 22.625Z" fill="#E95670"/>
</svg>
