<svg width="38" height="38" viewBox="0 0 38 38" fill="none" xmlns="http://www.w3.org/2000/svg">
<path d="M36.2722 19.1594V13.8185C36.2722 12.0075 34.8675 10.5347 33.0927 10.3919L28.1328 1.72867C27.6731 0.927444 26.9309 0.354782 26.0428 0.116989C25.1589 -0.119185 24.2346 0.00485262 23.4435 0.465298L6.44073 10.364H3.45452C1.54934 10.364 0 11.9133 0 13.8185V34.5455C0 36.4507 1.54926 38 3.45452 38H32.8177C34.7229 38 36.2722 36.4507 36.2722 34.5455V29.2047C37.2753 28.847 37.9994 27.8973 37.9994 26.7729V21.5911C37.9994 20.4667 37.2753 19.5171 36.2722 19.1594ZM31.0856 10.364H23.5583L29.2038 7.07719L31.0856 10.364ZM28.3457 5.57829L20.1254 10.364H16.7158L27.4931 4.08927L28.3457 5.57829ZM24.313 1.95804C24.7035 1.72948 25.1597 1.66876 25.5958 1.78518C26.0369 1.90323 26.4047 2.18831 26.6332 2.58722L26.635 2.59038L13.2831 10.364H9.87363L24.313 1.95804ZM34.5449 34.5455C34.5449 35.4976 33.7698 36.2727 32.8177 36.2727H3.45452C2.50237 36.2727 1.7273 35.4976 1.7273 34.5455V13.8185C1.7273 12.8664 2.50237 12.0913 3.45452 12.0913H32.8177C33.7698 12.0913 34.5449 12.8664 34.5449 13.8185V19.0003H29.3632C26.5058 19.0003 24.1815 21.3246 24.1815 24.182C24.1815 27.0394 26.5058 29.3637 29.3632 29.3637H34.5449V34.5455ZM36.2722 26.7729C36.2722 27.2494 35.8851 27.6365 35.4086 27.6365H29.3632C27.458 27.6365 25.9087 26.0873 25.9087 24.182C25.9087 22.2768 27.4579 20.7275 29.3632 20.7275H35.4086C35.885 20.7275 36.2722 21.1146 36.2722 21.5911V26.7729Z" fill="#E95670"/>
<path d="M29.3639 22.457C28.4118 22.457 27.6367 23.2321 27.6367 24.1842C27.6367 25.1364 28.4118 25.9115 29.3639 25.9115C30.3161 25.9115 31.0912 25.1364 31.0912 24.1842C31.0912 23.2321 30.3162 22.457 29.3639 22.457Z" fill="#E95670"/>
</svg>
